<svg width="25" height="24" viewBox="0 0 25 24" fill="none" xmlns="http://www.w3.org/2000/svg">
<g clip-path="url(#clip0_102_92)">
<path d="M12.2931 0.234375C9.07409 0.234375 8.6693 0.249202 7.40451 0.305547C6.13973 0.364857 5.27825 0.563545 4.52354 0.857129C3.73189 1.15489 3.01483 1.62197 2.42248 2.2257C1.81912 2.81835 1.3521 3.53533 1.05391 4.32676C0.760322 5.07999 0.560151 5.94295 0.502324 7.20329C0.44598 8.47104 0.431152 8.87434 0.431152 12.0978C0.431152 15.3184 0.44598 15.7217 0.502324 16.9865C0.561634 18.2498 0.760322 19.1112 1.05391 19.866C1.35787 20.6459 1.76266 21.3072 2.42248 21.967C3.08082 22.6268 3.74213 23.0331 4.52205 23.3356C5.27825 23.6292 6.13825 23.8293 7.40155 23.8872C8.66781 23.9435 9.07112 23.9583 12.2931 23.9583C15.5151 23.9583 15.917 23.9435 17.1832 23.8872C18.4451 23.8279 19.3095 23.6292 20.0642 23.3356C20.8554 23.0377 21.5719 22.5706 22.1638 21.967C22.8236 21.3072 23.2284 20.6459 23.5324 19.866C23.8245 19.1112 24.0246 18.2498 24.0839 16.9865C24.1403 15.7217 24.1551 15.3184 24.1551 12.0964C24.1551 8.87434 24.1403 8.47104 24.0839 7.20477C24.0246 5.94295 23.8245 5.07999 23.5324 4.32676C23.2342 3.5353 22.7672 2.81832 22.1638 2.2257C21.5716 1.62175 20.8545 1.15464 20.0627 0.857129C19.3065 0.563545 18.4436 0.363374 17.1818 0.305547C15.9155 0.249202 15.5137 0.234375 12.2902 0.234375H12.2946H12.2931ZM11.23 2.3725H12.2946C15.4618 2.3725 15.8369 2.38288 17.0869 2.4407C18.2434 2.4926 18.8721 2.68684 19.2902 2.84846C19.8433 3.06346 20.2392 3.32146 20.6543 3.73662C21.0695 4.15179 21.326 4.5462 21.541 5.10075C21.7041 5.5174 21.8969 6.14609 21.9488 7.30263C22.0066 8.55259 22.0185 8.92772 22.0185 12.0934C22.0185 15.2591 22.0066 15.6357 21.9488 16.8856C21.8969 18.0422 21.7026 18.6694 21.541 19.0875C21.3509 19.6026 21.0473 20.0683 20.6529 20.4502C20.2377 20.8653 19.8433 21.1218 19.2887 21.3368C18.8736 21.4999 18.2449 21.6927 17.0869 21.7461C15.8369 21.8024 15.4618 21.8158 12.2946 21.8158C9.12747 21.8158 8.75085 21.8024 7.50089 21.7461C6.34435 21.6927 5.71715 21.4999 5.29901 21.3368C4.78376 21.1469 4.31762 20.8439 3.93488 20.4502C3.5401 20.0677 3.2361 19.6015 3.04524 19.086C2.88362 18.6694 2.68938 18.0407 2.63748 16.8841C2.58114 15.6342 2.56927 15.2591 2.56927 12.0904C2.56927 8.92327 2.58114 8.54962 2.63748 7.29967C2.69086 6.14312 2.88362 5.51444 3.04672 5.0963C3.26172 4.54324 3.51972 4.14735 3.93488 3.73218C4.35005 3.31701 4.74446 3.06049 5.29901 2.84549C5.71715 2.68239 6.34435 2.48963 7.50089 2.43625C8.59516 2.38584 9.01923 2.37101 11.23 2.36953V2.3725V2.3725ZM18.6259 4.34159C18.439 4.34159 18.2539 4.3784 18.0812 4.44994C17.9085 4.52147 17.7516 4.62632 17.6194 4.7585C17.4872 4.89068 17.3824 5.0476 17.3109 5.2203C17.2393 5.393 17.2025 5.57809 17.2025 5.76502C17.2025 5.95195 17.2393 6.13705 17.3109 6.30975C17.3824 6.48245 17.4872 6.63937 17.6194 6.77155C17.7516 6.90372 17.9085 7.00857 18.0812 7.08011C18.2539 7.15164 18.439 7.18846 18.6259 7.18846C19.0035 7.18846 19.3655 7.03849 19.6325 6.77155C19.8994 6.5046 20.0494 6.14254 20.0494 5.76502C20.0494 5.3875 19.8994 5.02545 19.6325 4.7585C19.3655 4.49155 19.0035 4.34159 18.6259 4.34159V4.34159ZM12.2946 6.00523C11.4866 5.99262 10.6842 6.14088 9.93405 6.44136C9.1839 6.74185 8.50103 7.18857 7.92518 7.7555C7.34933 8.32243 6.89202 8.99825 6.57987 9.74362C6.26772 10.489 6.10696 11.289 6.10696 12.0971C6.10696 12.9052 6.26772 13.7052 6.57987 14.4506C6.89202 15.1959 7.34933 15.8718 7.92518 16.4387C8.50103 17.0056 9.1839 17.4523 9.93405 17.7528C10.6842 18.0533 11.4866 18.2016 12.2946 18.189C13.8938 18.164 15.4191 17.5112 16.5412 16.3715C17.6633 15.2318 18.2922 13.6965 18.2922 12.0971C18.2922 10.4977 17.6633 8.96244 16.5412 7.82271C15.4191 6.68297 13.8938 6.03018 12.2946 6.00523V6.00523ZM12.2946 8.14187C13.3434 8.14187 14.3492 8.5585 15.0909 9.30011C15.8325 10.0417 16.2491 11.0476 16.2491 12.0964C16.2491 13.1451 15.8325 14.151 15.0909 14.8926C14.3492 15.6342 13.3434 16.0508 12.2946 16.0508C11.2458 16.0508 10.24 15.6342 9.49837 14.8926C8.75676 14.151 8.34013 13.1451 8.34013 12.0964C8.34013 11.0476 8.75676 10.0417 9.49837 9.30011C10.24 8.5585 11.2458 8.14187 12.2946 8.14187V8.14187Z" fill="#EEEEEE"/>
</g>
<defs>
<clipPath id="clip0_102_92">
<rect width="23.724" height="23.724" fill="white" transform="translate(0.431152 0.234375)"/>
</clipPath>
</defs>
</svg>
