<svg width="77" height="77" viewBox="0 0 77 77" fill="none" xmlns="http://www.w3.org/2000/svg">
<path d="M38.5 49.9297C39.3301 49.9297 40.0039 49.2559 40.0039 48.4258C40.0039 47.5957 39.3301 46.9219 38.5 46.9219C37.6699 46.9219 36.9961 47.5957 36.9961 48.4258C36.9961 49.2559 37.6699 49.9297 38.5 49.9297Z" fill="#017F57"/>
<path d="M57.8481 42.0118C57.5832 41.5536 57.0962 41.2687 56.5669 41.261C56.5598 41.261 56.5534 41.261 56.5463 41.261C56.0246 41.261 55.54 41.5319 55.2656 41.9766L49.4832 51.373L40.0039 35.9692V18.0469H62.5625C63.1406 18.0469 63.6675 17.7155 63.9178 17.1944C64.1686 16.6734 64.0981 16.0548 63.7369 15.6036L58.4726 9.02343L63.7369 2.44326C64.0981 1.99209 64.1686 1.37349 63.9178 0.852409C63.6675 0.331329 63.1406 0 62.5625 0H38.5C37.6694 0 36.9961 0.673232 36.9961 1.5039V35.9692L27.5168 51.3736L21.7338 41.9766C21.4566 41.526 20.9643 41.254 20.4332 41.261C19.9033 41.2681 19.4169 41.5536 19.1514 42.0118L0.202161 74.7423C-0.0668967 75.2082 -0.0674843 75.7815 0.200986 76.2474C0.469457 76.7132 0.96645 76.9999 1.50398 76.9999H75.4961C76.0336 76.9999 76.5306 76.7132 76.7991 76.2474C77.0676 75.7815 77.067 75.2076 76.7973 74.7423L57.8481 42.0118ZM28.8163 55C28.8181 54.9971 28.8198 54.9947 28.8216 54.9918L38.5 39.2643L59.8708 73.9921H17.1287L28.8163 55ZM55.3726 8.08408C54.9331 8.63335 54.9331 9.4135 55.3726 9.96278L59.4331 15.039H40.0039V3.00781H59.4331L55.3726 8.08408ZM20.4925 45.6981L25.7509 54.2428L13.5969 73.9921H4.11231L20.4925 45.6981ZM63.4026 73.9921L51.2492 54.2422L56.5075 45.6981L72.8878 73.9921H63.4026Z" fill="#017F57"/>
<path d="M50.5167 70.2686C50.952 70.9765 51.8784 71.1962 52.5857 70.7609C53.293 70.3256 53.5139 69.3997 53.078 68.6924L43.1763 52.6018C42.7416 51.8945 41.8152 51.6736 41.1073 52.109C40.4 52.5449 40.1797 53.4707 40.615 54.178L50.5167 70.2686Z" fill="#017F57"/>
</svg>
