<svg width="30" height="30" viewBox="0 0 30 30" fill="none" xmlns="http://www.w3.org/2000/svg">
<path d="M14.8208 0.338867C6.76846 0.338867 0.217773 6.88955 0.217773 14.9419C0.217773 22.9943 6.76846 29.545 14.8208 29.545C22.8732 29.545 29.4239 22.9943 29.4239 14.9419C29.4239 6.88955 22.8732 0.338867 14.8208 0.338867ZM17.8631 20.2112C17.6721 20.3219 17.4628 20.3743 17.2559 20.3743C16.8348 20.3743 16.4259 20.1564 16.2008 19.7658L13.767 15.5504C13.6599 15.3654 13.6039 15.1561 13.6039 14.9419V7.64039C13.6039 6.96865 14.1479 6.42347 14.8208 6.42347C15.4938 6.42347 16.0377 6.96865 16.0377 7.64039V14.6158L18.3085 18.5489C18.6444 19.1306 18.4448 19.8753 17.8631 20.2112Z" fill="white"/>
</svg>
