<svg width="54" height="54" viewBox="0 0 54 54" fill="none" xmlns="http://www.w3.org/2000/svg">
<path d="M41.6029 38.8702H37.113C36.866 38.0249 36.3516 37.2824 35.6469 36.7542C34.9423 36.226 34.0854 35.9404 33.2047 35.9404C32.324 35.9404 31.4671 36.226 30.7624 36.7542C30.0578 37.2824 29.5434 38.0249 29.2964 38.8702H10.1714C9.86071 38.8702 9.56276 38.9936 9.34309 39.2133C9.12341 39.433 9 39.7309 9 40.0416C9 40.3522 9.12341 40.6502 9.34309 40.8699C9.56276 41.0895 9.86071 41.213 10.1714 41.213H29.2999C29.5479 42.0569 30.0625 42.7978 30.7667 43.3248C31.4709 43.8519 32.3268 44.1367 33.2064 44.1367C34.086 44.1367 34.942 43.8519 35.6462 43.3248C36.3504 42.7978 36.865 42.0569 37.113 41.213H41.5993C41.91 41.213 42.2079 41.0895 42.4276 40.8699C42.6473 40.6502 42.7707 40.3522 42.7707 40.0416C42.7707 39.7309 42.6473 39.433 42.4276 39.2133C42.2079 38.9936 41.91 38.8702 41.5993 38.8702H41.6029ZM33.2088 41.7986C32.8613 41.7986 32.5216 41.6956 32.2326 41.5025C31.9437 41.3095 31.7185 41.035 31.5855 40.714C31.4525 40.3929 31.4177 40.0396 31.4855 39.6988C31.5533 39.358 31.7206 39.0449 31.9664 38.7992C32.2121 38.5534 32.5252 38.3861 32.866 38.3183C33.2068 38.2505 33.5601 38.2853 33.8812 38.4183C34.2022 38.5513 34.4767 38.7765 34.6697 39.0654C34.8628 39.3544 34.9658 39.6941 34.9658 40.0416C34.9658 40.5076 34.7807 40.9545 34.4512 41.284C34.1217 41.6135 33.6748 41.7986 33.2088 41.7986Z" fill="#003424"/>
<path d="M40.4631 9H12.6781C11.7029 9.00093 10.7679 9.38874 10.0783 10.0783C9.38874 10.7679 9.00093 11.7029 9 12.6781V31.0921C9.00093 32.0673 9.38874 33.0023 10.0783 33.6919C10.7679 34.3815 11.7029 34.7693 12.6781 34.7702H40.4631C41.4383 34.7693 42.3733 34.3815 43.0629 33.6919C43.7525 33.0023 44.1403 32.0673 44.1412 31.0921V12.6781C44.1403 11.7029 43.7525 10.7679 43.0629 10.0783C42.3733 9.38874 41.4383 9.00093 40.4631 9ZM41.7985 31.0921C41.7982 31.4462 41.6574 31.7857 41.407 32.036C41.1566 32.2864 40.8172 32.4272 40.4631 32.4275H12.6781C12.324 32.4272 11.9846 32.2864 11.7342 32.036C11.4838 31.7857 11.3431 31.4462 11.3427 31.0921V12.6781C11.3431 12.324 11.4838 11.9846 11.7342 11.7342C11.9846 11.4838 12.324 11.3431 12.6781 11.3427H40.4631C40.8172 11.3431 41.1566 11.4838 41.407 11.7342C41.6574 11.9846 41.7982 12.324 41.7985 12.6781V31.0921Z" fill="#003424"/>
<path d="M33.0484 20.8914L23.6775 15.0345C23.5001 14.9237 23.2964 14.8623 23.0874 14.8568C22.8783 14.8514 22.6717 14.9019 22.4888 15.0033C22.3059 15.1046 22.1535 15.2531 22.0474 15.4333C21.9412 15.6134 21.8853 15.8187 21.8853 16.0278V27.7416C21.8853 27.9507 21.9412 28.1559 22.0474 28.3361C22.1535 28.5163 22.3059 28.6647 22.4888 28.7661C22.6717 28.8675 22.8783 28.918 23.0874 28.9125C23.2964 28.907 23.5001 28.8457 23.6775 28.7349L33.0484 22.878C33.218 22.773 33.3578 22.6264 33.4548 22.4521C33.5518 22.2779 33.6028 22.0818 33.6028 21.8823C33.6028 21.6829 33.5518 21.4868 33.4548 21.3126C33.3578 21.1383 33.218 20.9917 33.0484 20.8867V20.8914ZM24.228 25.6331V18.1363L30.2172 21.8847L24.228 25.6331Z" fill="#003424"/>
</svg>
