<svg width="75" height="76" viewBox="0 0 75 76" fill="none" xmlns="http://www.w3.org/2000/svg">
<path d="M57.6917 39.6083C57.2133 44.2456 55.1584 48.5785 51.8703 51.8833C48.5822 55.1881 44.2598 57.2648 39.625 57.7667C39.5317 57.7656 39.4391 57.7831 39.3526 57.8183C39.2662 57.8535 39.1876 57.9056 39.1216 57.9716C39.0556 58.0376 39.0035 58.1162 38.9683 58.2026C38.9331 58.2891 38.9156 58.3817 38.9167 58.475V73.6333C38.9167 74.0091 38.7674 74.3694 38.5017 74.6351C38.2361 74.9007 37.8757 75.05 37.5 75.05C37.1243 75.05 36.7639 74.9007 36.4983 74.6351C36.2326 74.3694 36.0833 74.0091 36.0833 73.6333V68.1333C36.0698 67.95 35.9909 67.7775 35.8608 67.6475C35.7308 67.5175 35.5584 67.4385 35.375 67.425C29.0743 66.9151 23.0978 64.4192 18.3058 60.2966C13.5138 56.174 10.1534 50.6373 8.70833 44.4833C8.65454 44.301 8.638 44.1097 8.65968 43.9209C8.68137 43.732 8.74084 43.5494 8.83456 43.384C8.92828 43.2187 9.05433 43.0738 9.2052 42.9582C9.35607 42.8425 9.52867 42.7584 9.71273 42.7108C9.89678 42.6633 10.0885 42.6533 10.2765 42.6814C10.4645 42.7095 10.645 42.7751 10.8071 42.8744C10.9692 42.9737 11.1097 43.1046 11.2201 43.2593C11.3306 43.4141 11.4087 43.5894 11.45 43.775C12.7347 49.2989 15.7304 54.2763 20.0099 57.9977C24.2895 61.7191 29.6346 63.9947 35.2833 64.5C35.4667 64.5917 35.6417 64.5 35.8167 64.325C35.9092 64.2728 35.984 64.1941 36.0315 64.0991C36.079 64.0041 36.0971 63.897 36.0833 63.7917V58.475C36.0844 58.3817 36.0669 58.2891 36.0317 58.2026C35.9965 58.1162 35.9444 58.0376 35.8784 57.9716C35.8124 57.9056 35.7338 57.8535 35.6474 57.8183C35.5609 57.7831 35.4683 57.7656 35.375 57.7667C30.7623 57.2528 26.4579 55.1975 23.1583 51.9333C19.8595 48.6179 17.8 44.2695 17.325 39.6167C17.298 39.4464 17.2125 39.2909 17.0832 39.1768C16.9539 39.0627 16.789 38.9973 16.6167 38.9917H1.45833C1.07156 38.9917 0.700627 38.838 0.427136 38.5645C0.153645 38.291 0 37.9201 0 37.5333C0 37.1466 0.153645 36.7756 0.427136 36.5021C0.700627 36.2286 1.07156 36.075 1.45833 36.075H7.21667C7.3885 36.0678 7.55264 36.0018 7.6816 35.888C7.81055 35.7742 7.89649 35.6196 7.925 35.45C8.30314 29.1587 10.6407 23.1434 14.61 18.2476C18.5792 13.3517 23.9811 9.82088 30.0583 8.15C30.4264 8.08014 30.8072 8.15375 31.1226 8.35573C31.4381 8.5577 31.6644 8.87273 31.755 9.2362C31.8456 9.59968 31.7937 9.98404 31.6099 10.3105C31.4261 10.6369 31.1244 10.8806 30.7667 10.9917C25.3297 12.4578 20.4863 15.5851 16.9127 19.9371C13.3391 24.2891 11.2137 29.6484 10.8333 35.2667C10.8098 35.3702 10.8108 35.4777 10.8361 35.5808C10.8614 35.6839 10.9103 35.7796 10.979 35.8605C11.0478 35.9414 11.1344 36.0051 11.2321 36.0467C11.3297 36.0883 11.4357 36.1065 11.5417 36.1H16.5833C16.7556 36.0944 16.9206 36.0289 17.0499 35.9149C17.1791 35.8008 17.2646 35.6453 17.2917 35.475C17.7636 30.8292 19.8176 26.4866 23.1097 23.1748C26.4018 19.8629 30.7321 17.783 35.375 17.2833C35.4683 17.2845 35.5609 17.2669 35.6474 17.2317C35.7338 17.1965 35.8124 17.1444 35.8784 17.0784C35.9444 17.0124 35.9965 16.9338 36.0317 16.8474C36.0669 16.7609 36.0844 16.6683 36.0833 16.575V1.41667C36.0833 1.04094 36.2326 0.680609 36.4983 0.414932C36.7639 0.149256 37.1243 0 37.5 0C37.8757 0 38.2361 0.149256 38.5017 0.414932C38.7674 0.680609 38.9167 1.04094 38.9167 1.41667V18.6083C38.9262 18.8089 38.8937 19.0093 38.8212 19.1966C38.7488 19.3839 38.638 19.554 38.496 19.696C38.354 19.838 38.1839 19.9488 37.9966 20.0212C37.8093 20.0937 37.6089 20.1262 37.4083 20.1167C22 20.1167 14.3 38.9833 25.1917 49.8833C36.0833 60.7833 54.675 52.9833 54.9417 37.525C54.9394 37.3383 54.9745 37.1531 55.0449 36.9802C55.1154 36.8073 55.2196 36.6503 55.3516 36.5183C55.4836 36.3863 55.6407 36.282 55.8136 36.2116C55.9865 36.1412 56.1717 36.1061 56.3583 36.1083H73.5417C73.9284 36.1083 74.2994 36.262 74.5729 36.5355C74.8464 36.809 75 37.1799 75 37.5667C75 37.9534 74.8464 38.3244 74.5729 38.5979C74.2994 38.8714 73.9284 39.025 73.5417 39.025H67.875C67.6992 39.0179 67.5274 39.079 67.3954 39.1954C67.2635 39.3118 67.1815 39.4747 67.1667 39.65C66.7068 45.9806 64.2585 52.0041 60.1714 56.8604C56.0844 61.7167 50.5674 65.1575 44.4083 66.6917C42.55 67.1333 41.9083 64.3 43.7833 63.8583C49.2837 62.4908 54.2164 59.432 57.8866 55.113C61.5568 50.794 63.7796 45.4323 64.2417 39.7833C64.2652 39.6798 64.2642 39.5723 64.2389 39.4692C64.2136 39.3661 64.1647 39.2704 64.0959 39.1895C64.0272 39.1086 63.9406 39.0449 63.8429 39.0033C63.7453 38.9617 63.6393 38.9435 63.5333 38.95H58.4C58.2277 38.9556 58.0627 39.0211 57.9335 39.1351C57.8042 39.2492 57.7187 39.4047 57.6917 39.575V39.6083ZM69.1667 16.0417L58.925 26.225C58.6747 26.4966 58.3273 26.6584 57.9583 26.675H51.1333C50.947 26.6913 50.7672 26.7513 50.6083 26.85L38.475 39.075C38.2022 39.3299 37.8411 39.469 37.4678 39.4631C37.0945 39.4571 36.738 39.3065 36.4734 39.0431C36.2089 38.7796 36.0569 38.4238 36.0494 38.0505C36.0419 37.6772 36.1796 37.3155 36.4333 37.0417L48.5667 24.8083C48.6483 24.7674 48.7167 24.7042 48.7639 24.6261C48.8111 24.5479 48.8351 24.458 48.8333 24.3667V17.525C48.8316 17.3279 48.8699 17.1325 48.9458 16.9506C49.0217 16.7687 49.1337 16.6041 49.275 16.4667L59.4583 6.29167C59.655 6.07908 59.9111 5.93064 60.1933 5.86568C60.4755 5.80072 60.7707 5.82225 61.0405 5.92747C61.3103 6.03269 61.5421 6.21672 61.7058 6.45559C61.8696 6.69445 61.9575 6.97708 61.9583 7.26667V12.85C61.9701 13.034 62.0485 13.2074 62.1789 13.3378C62.3093 13.4681 62.4827 13.5466 62.6667 13.5583H68.1583C68.4512 13.5507 68.7397 13.6314 68.9861 13.79C69.2324 13.9486 69.4253 14.1778 69.5395 14.4476C69.6537 14.7175 69.684 15.0155 69.6264 15.3028C69.5689 15.5901 69.4261 15.8534 69.2167 16.0583L69.1667 16.0417ZM57.5 23.5417L63.4333 17.6083C63.5364 17.5131 63.6093 17.3897 63.6428 17.2534C63.6764 17.1171 63.6693 16.974 63.6222 16.8418C63.5752 16.7095 63.4904 16.594 63.3783 16.5096C63.2662 16.4251 63.1317 16.3754 62.9917 16.3667H60.4917C60.1046 16.3757 59.7296 16.2322 59.4474 15.9672C59.1652 15.7022 58.9985 15.3368 58.9833 14.95V12.525C58.9826 12.3815 58.9398 12.2413 58.8603 12.1219C58.7807 12.0025 58.6678 11.909 58.5356 11.8531C58.4034 11.7972 58.2577 11.7813 58.1166 11.8075C57.9755 11.8336 57.8451 11.9005 57.7417 12L51.9083 17.9333C51.7526 18.069 51.6568 18.2607 51.6417 18.4667V23.075C51.6405 23.1683 51.6581 23.2609 51.6933 23.3474C51.7285 23.4338 51.7806 23.5124 51.8466 23.5784C51.9126 23.6444 51.9912 23.6965 52.0776 23.7317C52.1641 23.7669 52.2567 23.7845 52.35 23.7833H57.0417C57.225 23.7833 57.4 23.7833 57.4833 23.6L57.5 23.5417ZM49.5333 37.5417C49.5366 39.9243 48.833 42.2544 47.5115 44.2371C46.19 46.2197 44.31 47.7657 42.1094 48.6794C39.9089 49.5931 37.4868 49.8335 35.1496 49.37C32.8124 48.9066 30.6653 47.7603 28.9799 46.076C27.2945 44.3918 26.1466 42.2454 25.6816 39.9086C25.2166 37.5717 25.4552 35.1494 26.3674 32.9483C27.2796 30.7471 28.8243 28.8661 30.806 27.5432C32.7877 26.2203 35.1173 25.515 37.5 25.5167C37.858 25.5441 38.1925 25.7057 38.4365 25.9691C38.6805 26.2326 38.8161 26.5784 38.8161 26.9375C38.8161 27.2966 38.6805 27.6424 38.4365 27.9059C38.1925 28.1693 37.858 28.3309 37.5 28.3583C35.0688 28.3583 32.7373 29.3241 31.0182 31.0432C29.2991 32.7623 28.3333 35.0938 28.3333 37.525C28.3333 39.9562 29.2991 42.2877 31.0182 44.0068C32.7373 45.7259 35.0688 46.6917 37.5 46.6917C42.8167 46.6917 46.3583 42.7083 46.6167 37.525C46.6083 37.3239 46.6415 37.1233 46.714 36.9356C46.7866 36.7479 46.897 36.5772 47.0383 36.434C47.1797 36.2908 47.349 36.1782 47.5358 36.1033C47.7225 36.0283 47.9227 35.9926 48.1238 35.9983C48.325 36.0041 48.5228 36.0511 48.705 36.1366C48.8872 36.222 49.0498 36.3441 49.1828 36.4951C49.3158 36.6461 49.4163 36.8229 49.478 37.0144C49.5397 37.2059 49.5614 37.4081 49.5417 37.6083L49.5333 37.5417Z" fill="#017F57"/>
</svg>
