<svg width="54" height="54" viewBox="0 0 54 54" fill="none" xmlns="http://www.w3.org/2000/svg">
<path d="M49.6138 35.3599L46.1283 31.8743V19.9185L48.4038 19.0981C48.9262 18.9097 49.2746 18.4143 49.275 17.8589C49.2755 17.3037 48.9278 16.8076 48.4056 16.6185L27.5863 9.07876C27.2964 8.97375 26.9785 8.97375 26.6886 9.07876L5.86943 16.6185C5.34925 16.8069 5.00212 17.3 5.00001 17.8532C4.99807 18.4064 5.34161 18.902 5.86029 19.0942L13.5437 21.9404V30.6281C13.5437 30.8977 13.6263 31.1609 13.7806 31.382C13.8654 31.5036 14.6687 32.6007 16.7255 33.6359C19.3239 34.944 22.732 35.6072 26.8549 35.6072C30.9748 35.6072 34.4001 34.9454 37.0356 33.6399C39.1127 32.6111 39.9427 31.5254 40.0306 31.4051C40.1951 31.1795 40.2838 30.9075 40.2838 30.6283V22.0255L43.4919 20.8689V31.8743L40.0064 35.3599C39.7591 35.6071 39.6202 35.9424 39.6202 36.292C39.6202 36.6416 39.7591 36.9769 40.0064 37.2241L43.4919 40.7096V43.634C43.4919 44.362 44.0822 44.9523 44.8102 44.9523C45.5382 44.9523 46.1284 44.362 46.1284 43.634V40.7096L49.6139 37.2241C50.1287 36.7094 50.1287 35.8746 49.6138 35.3599ZM27.1375 11.7202L44.0778 17.8552L26.8611 24.0622L10.1509 17.872L27.1375 11.7202ZM37.6473 30.1027C33.1407 34.1578 19.7494 33.6928 16.1802 30.1159V22.9171L26.3969 26.7019C26.5591 26.7275 26.7122 26.8673 27.3019 26.7059L37.6473 22.9762L37.6473 30.1027ZM44.8101 38.2994L42.8026 36.292L44.8101 34.2845L46.8175 36.292L44.8101 38.2994Z" fill="#003424"/>
</svg>
