<svg width="24" height="25" viewBox="0 0 24 25" fill="none" xmlns="http://www.w3.org/2000/svg">
<g clip-path="url(#clip0_102_77)">
<path d="M0.291911 6.17579C0.441399 5.52078 0.808879 4.93594 1.33417 4.51705C1.85945 4.09817 2.51141 3.87007 3.18327 3.87012H20.9762C21.6481 3.87007 22.3001 4.09817 22.8253 4.51705C23.3506 4.93594 23.7181 5.52078 23.8676 6.17579L12.0798 13.3805L0.291911 6.17579ZM0.217773 7.86909V18.4025L8.82216 13.1269L0.217773 7.86909ZM10.2426 13.9973L0.500978 19.9683C0.741668 20.4758 1.12155 20.9046 1.5964 21.2046C2.07126 21.5046 2.62157 21.6636 3.18327 21.6631H20.9762C21.5378 21.6632 22.0879 21.5039 22.5625 21.2036C23.0371 20.9033 23.4167 20.4744 23.657 19.9668L13.9154 13.9958L12.0798 15.1182L10.2426 13.9958V13.9973ZM15.3373 13.1284L23.9417 18.4025V7.86909L15.3373 13.1269V13.1284Z" fill="#EEEEEE"/>
</g>
<defs>
<clipPath id="clip0_102_77">
<rect width="23.724" height="23.724" fill="white" transform="translate(0.217773 0.904297)"/>
</clipPath>
</defs>
</svg>
