<svg width="36" height="43" viewBox="0 0 36 43" fill="none" xmlns="http://www.w3.org/2000/svg">
<path d="M33.2122 36.3906H28.6384C28.3868 35.3608 27.8628 34.4562 27.145 33.8127C26.4272 33.1692 25.5542 32.8213 24.6571 32.8213C23.76 32.8213 22.887 33.1692 22.1692 33.8127C21.4514 34.4562 20.9274 35.3608 20.6758 36.3906H1.19327C0.876794 36.3906 0.573281 36.541 0.3495 36.8086C0.125719 37.0762 0 37.4392 0 37.8177C0 38.1962 0.125719 38.5592 0.3495 38.8268C0.573281 39.0944 0.876794 39.2448 1.19327 39.2448H20.6793C20.932 40.2729 21.4562 41.1756 22.1735 41.8177C22.8909 42.4598 23.7628 42.8068 24.6589 42.8068C25.5549 42.8068 26.4269 42.4598 27.1442 41.8177C27.8616 41.1756 28.3858 40.2729 28.6384 39.2448H33.2086C33.5251 39.2448 33.8286 39.0944 34.0524 38.8268C34.2762 38.5592 34.4019 38.1962 34.4019 37.8177C34.4019 37.4392 34.2762 37.0762 34.0524 36.8086C33.8286 36.541 33.5251 36.3906 33.2086 36.3906H33.2122ZM24.6613 39.9583C24.3073 39.9583 23.9612 39.8328 23.6669 39.5976C23.3725 39.3624 23.1431 39.028 23.0076 38.6369C22.8721 38.2457 22.8367 37.8153 22.9058 37.4001C22.9748 36.9849 23.1453 36.6034 23.3956 36.3041C23.6459 36.0047 23.9649 35.8008 24.3121 35.7182C24.6593 35.6356 25.0192 35.678 25.3462 35.84C25.6733 36.0021 25.9528 36.2764 26.1495 36.6284C26.3462 36.9805 26.4512 37.3943 26.4512 37.8177C26.4512 38.3854 26.2626 38.9299 25.9269 39.3314C25.5912 39.7328 25.136 39.9583 24.6613 39.9583Z" fill="#003424"/>
<path d="M32.0512 0H3.74686C2.75342 0.0011335 1.80094 0.473606 1.09848 1.31372C0.39601 2.15383 0.000947788 3.29294 0 4.48104V26.9148C0.000947788 28.1029 0.39601 29.242 1.09848 30.0821C1.80094 30.9222 2.75342 31.3947 3.74686 31.3958H32.0512C33.0446 31.3947 33.9971 30.9222 34.6996 30.0821C35.402 29.242 35.7971 28.1029 35.798 26.9148V4.48104C35.7971 3.29294 35.402 2.15383 34.6996 1.31372C33.9971 0.473606 33.0446 0.0011335 32.0512 0ZM33.4115 26.9148C33.4112 27.3462 33.2678 27.7597 33.0127 28.0648C32.7577 28.3698 32.4119 28.5413 32.0512 28.5417H3.74686C3.38618 28.5413 3.04036 28.3698 2.78532 28.0648C2.53027 27.7597 2.38685 27.3462 2.38654 26.9148V4.48104C2.38685 4.04968 2.53027 3.6361 2.78532 3.33108C3.04036 3.02607 3.38618 2.85454 3.74686 2.85417H32.0512C32.4119 2.85454 32.7577 3.02607 33.0127 3.33108C33.2678 3.6361 33.4112 4.04968 33.4115 4.48104V26.9148Z" fill="#003424"/>
<path d="M24.4978 14.4881L14.9517 7.35266C14.771 7.21765 14.5635 7.14292 14.3506 7.13623C14.1376 7.12955 13.9271 7.19115 13.7408 7.31464C13.5545 7.43813 13.3992 7.61901 13.2911 7.8385C13.183 8.05799 13.126 8.30809 13.126 8.56283V22.8337C13.126 23.0884 13.183 23.3385 13.2911 23.558C13.3992 23.7775 13.5545 23.9584 13.7408 24.0819C13.9271 24.2053 14.1376 24.2669 14.3506 24.2603C14.5635 24.2536 14.771 24.1788 14.9517 24.0438L24.4978 16.9084C24.6705 16.7804 24.813 16.6018 24.9118 16.3896C25.0106 16.1773 25.0625 15.9383 25.0625 15.6954C25.0625 15.4524 25.0106 15.2135 24.9118 15.0012C24.813 14.7889 24.6705 14.6104 24.4978 14.4824V14.4881ZM15.5125 20.2649V11.1316L21.6137 15.6982L15.5125 20.2649Z" fill="#003424"/>
</svg>
