<svg width="24" height="25" viewBox="0 0 24 25" fill="none" xmlns="http://www.w3.org/2000/svg">
<g clip-path="url(#clip0_102_81)">
<path fill-rule="evenodd" clip-rule="evenodd" d="M3.01345 1.37852C3.27289 1.11947 3.58443 0.918514 3.92741 0.788969C4.27039 0.659424 4.63699 0.604249 5.00291 0.627102C5.36883 0.649954 5.72571 0.750312 6.04991 0.921524C6.37411 1.09274 6.65823 1.33089 6.88342 1.62021L9.54495 5.03943C10.0328 5.66663 10.2048 6.48362 10.012 7.25465L9.20096 10.5019C9.15902 10.6701 9.16129 10.8462 9.20753 11.0133C9.25378 11.1803 9.34243 11.3326 9.46489 11.4553L13.108 15.0984C13.2308 15.2211 13.3833 15.3099 13.5507 15.3561C13.718 15.4024 13.8945 15.4045 14.0629 15.3623L17.3086 14.5513C17.6891 14.4561 18.0863 14.4487 18.47 14.5296C18.8538 14.6106 19.2141 14.7777 19.5238 15.0183L22.9431 17.6784C24.1723 18.6347 24.2849 20.4511 23.1847 21.5498L21.6516 23.083C20.5544 24.1802 18.9144 24.6621 17.3857 24.1239C13.473 22.7472 9.92049 20.5072 6.99166 17.5701C4.05477 14.6417 1.81481 11.0897 0.437918 7.17755C-0.0988362 5.65032 0.383057 4.00892 1.48029 2.91168L3.01345 1.37852Z" fill="#EEEEEE"/>
</g>
<defs>
<clipPath id="clip0_102_81">
<rect width="23.724" height="23.724" fill="white" transform="translate(0.217773 0.62207)"/>
</clipPath>
</defs>
</svg>
