<svg width="25" height="25" viewBox="0 0 25 25" fill="none" xmlns="http://www.w3.org/2000/svg">
<path d="M24.4192 1.92703C24.4732 1.79231 24.4864 1.64471 24.4572 1.50255C24.4281 1.36039 24.3578 1.22992 24.2552 1.1273C24.1526 1.02468 24.0221 0.954441 23.8799 0.925279C23.7378 0.896117 23.5902 0.909319 23.4555 0.963248L1.88594 9.59135H1.88445L1.21425 9.85825C1.08732 9.90888 0.976844 9.99362 0.895041 10.1031C0.813238 10.2126 0.763287 10.3425 0.750707 10.4786C0.738126 10.6147 0.763406 10.7516 0.823752 10.8742C0.884099 10.9968 0.977164 11.1004 1.09267 11.1734L1.70059 11.559L1.70208 11.5619L9.1084 16.2741L13.8206 23.6804L13.8235 23.6834L14.2091 24.2913C14.2823 24.4064 14.3859 24.499 14.5085 24.5589C14.631 24.6189 14.7677 24.6439 14.9035 24.6312C15.0393 24.6185 15.169 24.5685 15.2783 24.4868C15.3875 24.4052 15.4721 24.2949 15.5228 24.1682L24.4192 1.92703V1.92703ZM21.7014 4.72943L10.5897 15.8411L10.2709 15.34C10.2125 15.248 10.1345 15.17 10.0425 15.1116L9.54136 14.7928L20.6531 3.68112L22.3997 2.98275L21.7029 4.72943H21.7014Z" fill="#EEEEEE"/>
</svg>
