<svg width="52" height="52" viewBox="0 0 52 52" fill="none" xmlns="http://www.w3.org/2000/svg">
<path d="M17.9636 23.1544L15.6908 25.4272L23.7924 33.5288L36.3093 21.0111L34.0365 18.7383L23.7924 28.9832L17.9636 23.1544Z" fill="#017F57"/>
<path d="M26 3.25L25.0535 3.93985C19.2766 8.15112 13.4415 10.4051 7.71165 10.639L6.17029 10.7017V20.5621C6.17029 32.8616 13.8842 44.0914 25.3612 48.5044L25.9961 48.75L26.5737 48.5295C38.0915 44.1314 45.8298 32.8914 45.8298 20.5621V10.7017L44.2884 10.639C38.5585 10.4051 32.7235 8.15112 26.9465 3.93985L26 3.25ZM42.6152 20.5621C42.6152 31.3618 35.9631 41.2245 26 45.3C16.0385 41.2253 9.38486 31.3555 9.38486 20.5621V13.7452C14.9342 13.2108 20.5126 11.018 26 7.21092C31.4874 11.018 37.0658 13.2108 42.6152 13.7452V20.5621Z" fill="#017F57"/>
</svg>
